<?xml version="1.0" standalone="no"?>
<!DOCTYPE svg PUBLIC "-//W3C//DTD SVG 1.1//EN" "http://www.w3.org/Graphics/SVG/1.1/DTD/svg11.dtd" >
<svg xmlns="http://www.w3.org/2000/svg" xmlns:xlink="http://www.w3.org/1999/xlink" version="1.1">
<metadata></metadata>
<defs>
<font id="shual_regularregular" horiz-adv-x="956" >
<font-face units-per-em="2048" ascent="1536" descent="-512" />
<missing-glyph horiz-adv-x="512" />
<glyph horiz-adv-x="0" />
<glyph horiz-adv-x="682" />
<glyph unicode=" "  horiz-adv-x="512" />
<glyph unicode="&#x09;" horiz-adv-x="512" />
<glyph unicode="&#xa0;" horiz-adv-x="512" />
<glyph unicode="!" horiz-adv-x="382" d="M90 0v207h201v-207h-201zM98 625v536h189v-536l-13 -312h-161z" />
<glyph unicode="&#x22;" horiz-adv-x="686" d="M92 621q31 79 31 251v162h194v-88q0 -61 -8 -116.5t-19.5 -92t-23.5 -64t-20 -39.5l-8 -13h-146zM389 621q31 79 31 251v162h194v-88q0 -96 -20 -177.5t-40 -114.5l-19 -33h-146z" />
<glyph unicode="#" horiz-adv-x="1085" d="M72 248v160h192l15 268h-207v160h215l12 249h164l-12 -249h245l13 249h163l-12 -249h154v-160h-162l-14 -268h176v-160h-185l-12 -248h-164l13 248h-246l-12 -248h-164l12 248h-184zM428 408h246l14 268h-246z" />
<glyph unicode="$" horiz-adv-x="845" d="M51 16l25 156l75 -12.5t79 -12.5t66 -8t66 -4q248 0 248 137q0 54 -78 99q-23 12 -52.5 24.5t-72.5 29.5t-65 26q-45 20 -78 37.5t-70 44.5t-60 56.5t-38.5 71t-15.5 89.5q0 121 78 195t211 93v195h174v-193q107 0 213 -36l-33 -148q-161 33 -264 33q-92 0 -140.5 -35.5 t-48.5 -89.5q0 -58 90 -111q35 -20 122 -57.5t128 -58.5q87 -48 136 -107t49 -145q0 -122 -70 -192.5t-182 -96.5v-201h-174v182q-189 3 -318 39z" />
<glyph unicode="%" horiz-adv-x="1234" d="M70 795q0 123 75.5 194.5t184.5 71.5t184.5 -71.5t75.5 -194.5t-75.5 -195t-184.5 -72t-184.5 72t-75.5 195zM195 41l729 1040l112 -82l-729 -1038zM219 795q0 -76 31.5 -112t79.5 -36t79 36t31 112t-31 111.5t-79 35.5t-79.5 -35.5t-31.5 -111.5zM643 248 q0 123 75.5 194.5t184.5 71.5t184.5 -71.5t75.5 -194.5t-75.5 -194.5t-184.5 -71.5t-184.5 71.5t-75.5 194.5zM793 248q0 -76 31 -112t79 -36t79.5 36t31.5 112t-31.5 111.5t-79.5 35.5t-79 -35.5t-31 -111.5z" />
<glyph unicode="&#x26;" horiz-adv-x="1114" d="M55 340q0 211 283 356q-42 54 -63 85t-41.5 82.5t-20.5 101.5q0 131 86.5 211.5t214.5 80.5q127 0 217 -77t90 -217q0 -101 -62.5 -180.5t-160.5 -131.5l193 -229q28 86 36 164h172q-21 -183 -96 -301l236 -285h-242l-111 137q-134 -162 -344 -162q-172 0 -279.5 98 t-107.5 267zM252 338q0 -97 55 -152t142 -55q30 0 55.5 4.5t47 15t36 18t32 25.5t24 24.5t21.5 27t17 22.5l-242 299q-11 -7 -38.5 -22.5t-43 -25t-38.5 -29t-36 -39t-22.5 -49t-9.5 -64.5zM389 975q0 -28 12.5 -58t26 -49.5t38 -51t34.5 -46.5q35 23 56 40t44 42t34 54.5 t11 64.5q0 61 -34.5 101t-90.5 40q-57 0 -94 -37.5t-37 -99.5z" />
<glyph unicode="'" horiz-adv-x="409" d="M92 621q31 79 31 251v162h194v-88q0 -61 -8 -116.5t-19.5 -92t-23.5 -64t-20 -39.5l-8 -13h-146z" />
<glyph unicode="(" horiz-adv-x="579" d="M72 575q0 105 20 202t52 168t70.5 132.5t77 102t70.5 69t52 41.5l20 13l125 -132q-6 -4 -16.5 -11.5t-40 -35.5t-57 -59.5t-60.5 -84t-56.5 -109t-40 -134t-16.5 -159.5q0 -83 15.5 -163t41 -141t55.5 -115.5t60.5 -92t56 -65.5t41.5 -41l15 -13l-123 -131q-8 5 -21 15 t-50.5 46t-71.5 77t-76 108t-72 139.5t-50.5 171t-20.5 202.5z" />
<glyph unicode=")" horiz-adv-x="579" d="M20 1171l125 132q8 -4 21 -13t50.5 -41t72 -70t76 -101t72 -133t51 -167.5t20.5 -202.5q0 -104 -20 -202t-52 -172t-71 -138.5t-77.5 -108.5t-70.5 -76t-52 -47l-20 -15l-122 131q6 5 16 13.5t39.5 40t56.5 66.5t60 91.5t56.5 116t39.5 140t16 163.5q0 82 -16 159.5 t-41 135t-55.5 108t-61.5 84.5t-56 58.5t-41 36.5z" />
<glyph unicode="*" horiz-adv-x="958" d="M92 641l297 135l-297 135l98 129l242 -172l-37 293h168l-37 -293l242 172l98 -129l-297 -135l297 -135l-98 -129l-242 172l37 -293h-168l37 293l-242 -172z" />
<glyph unicode="+" horiz-adv-x="993" d="M92 438v174h318v328h174v-328h317v-174h-317v-327h-174v327h-318z" />
<glyph unicode="," horiz-adv-x="399" d="M92 -240q31 80 31 252v162h194v-88q0 -61 -8 -117t-19.5 -92t-23.5 -64t-20 -41l-8 -12h-146z" />
<glyph unicode="-" horiz-adv-x="993" d="M92 438v174h809v-174h-809z" />
<glyph unicode="." horiz-adv-x="376" d="M92 0v174h203v-174h-203z" />
<glyph unicode="/" horiz-adv-x="737" d="M72 -113l420 1377h174l-420 -1377h-174z" />
<glyph unicode="0" horiz-adv-x="882" d="M35 520q0 98 12 177t41 148t75 116t116.5 73.5t162.5 26.5q114 0 195 -39.5t126.5 -114.5t66 -169.5t20.5 -217.5t-20.5 -217t-66 -168.5t-126.5 -113.5t-195 -39q-92 0 -162.5 26.5t-116.5 72.5t-75 115t-41 147.5t-12 176.5zM221 520q0 -192 51 -291.5t170 -99.5 t170.5 99.5t51.5 291.5t-51.5 292.5t-170.5 100.5t-170 -100.5t-51 -292.5z" />
<glyph unicode="1" horiz-adv-x="882" d="M106 0l15 174h237v707l-231 -23v137l270 47h135v-868h244l-14 -174h-656z" />
<glyph unicode="2" horiz-adv-x="884" d="M84 0v158q9 9 110 87t166 146q218 226 218 348q0 91 -53.5 132.5t-137.5 41.5q-58 0 -127.5 -17t-122.5 -44l-22 133q136 76 291 76q82 0 146 -19t103.5 -49t64.5 -71.5t34.5 -83t9.5 -86.5q0 -200 -287 -459q-21 -19 -57.5 -49t-63.5 -50l-26 -20h475l-23 -174h-698z " />
<glyph unicode="3" horiz-adv-x="882" d="M88 20l23 148q144 -39 249 -39q65 0 117 13.5t89.5 51t37.5 95.5q0 97 -80.5 137t-240.5 45l14 137q126 8 193 47t67 127q0 63 -53 97t-133 34q-110 0 -234 -43l-22 134q128 57 266 57q94 0 172.5 -26t131 -85t52.5 -143q0 -98 -48.5 -154.5t-143.5 -95.5 q246 -73 246 -268q0 -70 -24 -124.5t-63.5 -88.5t-95 -55.5t-112 -30t-121.5 -8.5q-154 0 -287 38z" />
<glyph unicode="4" horiz-adv-x="882" d="M41 211v178l375 651h270v-655h156l-23 -174h-133v-211h-174v211h-471zM221 385h291v526z" />
<glyph unicode="5" horiz-adv-x="882" d="M98 16l23 148q143 -35 256 -35q97 0 166 51t69 127q0 92 -62 137t-157 45q-61 0 -125.5 -3t-98.5 -6l-34 -3v563h610l-14 -174h-422v-231q47 2 107 2q166 0 272.5 -84.5t106.5 -228.5q0 -68 -19 -123t-53 -91t-75 -62t-89.5 -40t-92 -20t-87.5 -6q-163 0 -281 34z" />
<glyph unicode="6" horiz-adv-x="882" d="M63 453q0 297 131 452.5t357 155.5q32 0 75.5 -5.5t71.5 -10.5l27 -5l-23 -143q-75 16 -153 16q-228 0 -285 -282q135 31 203 31q172 0 262 -80t90 -240q0 -169 -103.5 -264.5t-262.5 -95.5q-193 0 -291.5 111.5t-98.5 359.5zM248 414q3 -153 50 -219t165 -66 q79 0 126.5 56t47.5 143q0 100 -50 148t-138 48q-69 0 -199 -32q-2 -16 -2 -54v-24z" />
<glyph unicode="7" horiz-adv-x="882" d="M84 866l22 174h697v-129l-486 -942l-155 70l442 827h-520z" />
<glyph unicode="8" horiz-adv-x="882" d="M66 254q0 99 56 165t165 128q-94 60 -137.5 117.5t-43.5 138.5q0 126 94 192t253 66q151 0 240 -72t89 -174q0 -60 -28.5 -110t-69.5 -84t-109 -74q122 -66 181 -127t59 -148q0 -141 -102.5 -215.5t-276.5 -74.5q-166 0 -268 70t-102 202zM246 274q0 -65 47.5 -105 t150.5 -40q187 0 187 150q0 24 -13 48t-30.5 41.5t-49 39t-53 33.5t-59.5 32q-85 -44 -132.5 -92t-47.5 -107zM285 782q0 -28 11.5 -52.5t35.5 -46t46.5 -36.5t57.5 -35q34 18 58 32.5t50.5 36t40 47t13.5 54.5q0 62 -37 96.5t-110 34.5q-85 0 -125.5 -35t-40.5 -96z" />
<glyph unicode="9" horiz-adv-x="882" d="M63 709q0 166 105 259t264 93q186 0 286.5 -119t100.5 -354q0 -606 -493 -606q-31 0 -78 5.5t-78 10.5l-31 6l23 143q115 -18 166 -18q132 0 201 73.5t92 209.5q-130 -33 -207 -33q-351 0 -351 330zM248 721q0 -203 188 -203q62 0 199 31v61q0 153 -49 228t-164 75 q-81 0 -127.5 -53t-46.5 -139z" />
<glyph unicode=":" horiz-adv-x="376" d="M92 0v174h203v-174h-203zM92 522v174h203v-174h-203z" />
<glyph unicode=";" horiz-adv-x="399" d="M92 -240q31 80 31 252v162h194v-88q0 -61 -8 -117t-19.5 -92t-23.5 -64t-20 -41l-8 -12h-146zM115 522v174h202v-174h-202z" />
<glyph unicode="&#x3c;" horiz-adv-x="892" d="M51 440v213l750 357v-207l-559 -256l559 -244v-205z" />
<glyph unicode="=" horiz-adv-x="993" d="M92 264v174h809v-174h-809zM92 612v174h809v-174h-809z" />
<glyph unicode="&#x3e;" horiz-adv-x="892" d="M92 98v205l559 244l-559 256v207l750 -357v-213z" />
<glyph unicode="?" horiz-adv-x="663" d="M106 1014l23 162q86 0 156 -9t133.5 -31.5t106.5 -58.5t68 -92t25 -129q0 -62 -31 -117t-75 -94.5t-87.5 -76.5t-74.5 -78.5t-31 -83.5l13 -95h-164q-16 78 -16 109q0 63 28 118.5t67.5 93.5t79 72t67.5 69.5t28 70.5q0 94 -77 132t-239 38zM152 0v207h200v-207h-200z " />
<glyph unicode="@" horiz-adv-x="1376" d="M84 637q0 170 86 313t231 225t314 82q153 0 285 -63.5t212 -180t80 -259.5q0 -99 -29 -185.5t-73.5 -145t-99.5 -100.5t-107.5 -61.5t-95.5 -19.5q-42 0 -71 25.5t-32 72.5h-4q-37 -42 -88.5 -70t-103.5 -28q-105 0 -177.5 79.5t-72.5 190.5t46.5 212.5t134.5 167.5 t196 66q131 0 192 -124l31 98h121l-125 -453q-36 -119 18 -119q83 0 153.5 110t70.5 263q0 124 -63 219t-167 144t-231 49q-143 0 -256.5 -68.5t-175.5 -186t-62 -261.5q0 -247 144 -397t366 -150q112 0 215 45t172 125h121q-83 -132 -219.5 -206.5t-294.5 -74.5 q-132 0 -249.5 49t-204 135.5t-137 211.5t-50.5 270zM483 528q0 -70 38 -113.5t100 -43.5q65 0 120.5 51t85 121.5t29.5 134.5q0 60 -40 105.5t-95 45.5q-68 0 -124 -49t-85 -117.5t-29 -134.5z" />
<glyph unicode="A" horiz-adv-x="1146" d="M-12 0l471 1229h229l473 -1229h-231l-115 326h-489l-117 -326h-221zM383 489h375l-183 527h-2h-4z" />
<glyph unicode="B" horiz-adv-x="1210" d="M131 0v1229h596q170 0 267.5 -77.5t97.5 -227.5q0 -185 -174 -262v-3q111 -25 170 -107.5t59 -209.5q0 -154 -112.5 -248t-340.5 -94h-563zM346 176h379q99 0 153 51t54 144q0 89 -54.5 138.5t-152.5 49.5h-379v-383zM346 715h350q81 0 131 44.5t50 125.5q0 90 -45 129 t-136 39h-350v-338z" />
<glyph unicode="C" horiz-adv-x="1241" d="M66 614q0 177 68.5 321.5t204 233t314.5 88.5q212 -2 357.5 -113.5t165.5 -305.5h-215q-64 243 -308 243q-95 0 -168 -39.5t-116.5 -106t-65.5 -148t-22 -173.5t22 -173.5t65.5 -149t116.5 -107t168 -39.5q137 0 219 91t95 231h211q-14 -221 -158 -358.5t-367 -137.5 q-179 0 -314.5 88.5t-204 233t-68.5 321.5z" />
<glyph unicode="D" horiz-adv-x="1241" d="M131 0v1229h508q111 0 201.5 -31.5t153.5 -87.5t105.5 -133.5t62.5 -168.5t20 -194q0 -131 -32 -240t-96.5 -194t-170.5 -132.5t-244 -47.5h-508zM346 176h211q83 0 147.5 15t109 44.5t75 67t47.5 89t24 104.5t7 118q0 79 -10 140.5t-37.5 119.5t-72 96t-118 60.5 t-172.5 22.5h-211v-877z" />
<glyph unicode="E" horiz-adv-x="1083" d="M131 0v1229h885v-187h-670v-321h619v-176h-619v-359h680v-186h-895z" />
<glyph unicode="F" horiz-adv-x="1019" d="M131 0v1229h848v-187h-633v-321h555v-176h-555v-545h-215z" />
<glyph unicode="G" horiz-adv-x="1306" d="M74 614q0 131 41 248t115 205t186 139t246 51q209 0 355.5 -109.5t170.5 -309.5h-209q-14 116 -103.5 179.5t-213.5 63.5q-95 0 -168.5 -39.5t-117 -106t-65.5 -148.5t-22 -173q0 -73 13.5 -139.5t43 -127t72 -105.5t105.5 -71t139 -26h4q161 0 249 89q89 90 91 249h-326 v164h522v-647h-137l-33 145q-84 -96 -169.5 -135t-200.5 -39q-134 0 -246 51t-186 139t-115 205t-41 248z" />
<glyph unicode="H" horiz-adv-x="1241" d="M125 0v1229h215v-490h559v490h215v-1229h-215v553h-559v-553h-215z" />
<glyph unicode="I" horiz-adv-x="479" d="M131 0v1229h215v-1229h-215z" />
<glyph unicode="J" horiz-adv-x="923" d="M23 365v65h215v-63q0 -111 37 -166.5t131 -55.5q99 0 135.5 58t36.5 180v846h215v-834q0 -71 -8 -126.5t-33.5 -114t-68 -96.5t-117.5 -62.5t-177 -24.5q-95 0 -166.5 30t-114.5 84t-64 124t-21 156z" />
<glyph unicode="K" horiz-adv-x="1177" d="M131 0v1229h215v-559l547 559h264l-489 -492l524 -737h-268l-402 586l-176 -172v-414h-215z" />
<glyph unicode="L" horiz-adv-x="987" d="M131 0v1229h215v-1043h625v-186h-840z" />
<glyph unicode="M" horiz-adv-x="1529" d="M127 0v1229h303l338 -963h4l330 963h301v-1229h-205v948h-4l-340 -948h-178l-340 948h-4v-948h-205z" />
<glyph unicode="N" horiz-adv-x="1241" d="M123 0v1229h227l559 -905h4v905h205v-1229h-227l-559 903h-4v-903h-205z" />
<glyph unicode="O" horiz-adv-x="1306" d="M66 614q0 177 68.5 321.5t204 233t314.5 88.5t314.5 -88.5t204.5 -233t69 -321.5t-69 -321.5t-204.5 -233t-314.5 -88.5t-314.5 88.5t-204 233t-68.5 321.5zM281 614q0 -92 22 -173.5t65.5 -149t116.5 -107t168 -39.5q77 0 140 26t105.5 71t72 105.5t42.5 127t13 139.5 q0 92 -22 173t-65 148t-117 106.5t-169 39.5t-168 -39.5t-116.5 -106t-65.5 -148t-22 -173.5z" />
<glyph unicode="P" horiz-adv-x="1146" d="M131 0v1229h541q101 0 178.5 -25.5t122 -64t72.5 -91.5t37.5 -100.5t9.5 -99.5q0 -51 -9.5 -98.5t-37.5 -100t-72.5 -91t-122.5 -63.5q-75 -24 -170 -24h-8h-326v-471h-215zM346 647h316q39 0 74.5 10t68.5 32.5t52.5 63.5t19.5 97q0 203 -213 203h-318v-406z" />
<glyph unicode="Q" horiz-adv-x="1306" d="M66 614q0 177 68.5 321.5t204 233t314.5 88.5t314.5 -88.5t204.5 -233t69 -321.5q0 -135 -43 -261.5t-129 -209.5l158 -137l-105 -119l-180 158q-131 -74 -289 -74q-179 0 -314.5 88.5t-204 233t-68.5 321.5zM281 614q0 -92 22 -173.5t65.5 -149t116.5 -107t168 -39.5 q71 0 138 31l-123 109l102 118l150 -131q106 125 106 342q0 92 -22 173t-65 148t-117 106.5t-169 39.5t-168 -39.5t-116.5 -106t-65.5 -148t-22 -173.5z" />
<glyph unicode="R" horiz-adv-x="1210" d="M131 0v1229h586q198 0 302.5 -87.5t104.5 -244.5q0 -67 -18 -121.5t-41 -86t-56 -56t-51 -32.5t-38 -15v-2q32 -4 61 -18t58 -42t46 -79.5t17 -120.5q0 -112 17 -200.5t50 -123.5h-229q-15 25 -23 59.5t-9 57.5t-1 63q0 177 -50.5 251.5t-194.5 74.5h-316v-506h-215z M346 670h352q102 0 156.5 50t54.5 146q0 56 -17 94.5t-49 58t-67 27t-82 7.5h-348v-383z" />
<glyph unicode="S" horiz-adv-x="1114" d="M57 410h215q0 -90 43 -151.5t111 -87.5t158 -26q131 0 195.5 55t64.5 132q0 113 -103 151q-38 15 -88.5 29t-134 35.5t-143.5 38.5q-273 72 -273 311q0 72 25.5 132t69 101.5t101.5 70.5t122.5 42.5t132.5 13.5q131 0 236 -43.5t170 -133.5t65 -214h-215 q-14 215 -266 215q-40 0 -77 -7.5t-72 -24.5t-56 -49.5t-21 -77.5q0 -116 148 -158q7 -2 82 -22t160.5 -42t111.5 -30q115 -35 177.5 -123.5t62.5 -190.5q0 -100 -41.5 -176t-112.5 -120.5t-156 -66.5t-180 -22q-108 0 -198.5 26t-161 78.5t-111 138t-41.5 196.5z" />
<glyph unicode="T" horiz-adv-x="1019" d="M14 1042v187h994v-187h-390v-1042h-215v1042h-389z" />
<glyph unicode="U" horiz-adv-x="1241" d="M117 442v787h215v-717q0 -43 1.5 -72t7.5 -70t17 -68t32.5 -57t51.5 -47.5t75.5 -29.5t103.5 -12t103.5 12t75.5 29.5t51.5 47.5t32.5 57t17 68t7 69.5t1 72.5v717h215v-787q0 -231 -134.5 -351t-368.5 -120t-369 120t-135 351z" />
<glyph unicode="V" horiz-adv-x="1050" d="M-8 1229h223l307 -973h4l316 973h217l-420 -1229h-238z" />
<glyph unicode="W" horiz-adv-x="1624" d="M10 1229h219l222 -940h4l247 940h220l241 -940h4l228 940h219l-340 -1229h-217l-246 940h-4l-252 -940h-221z" />
<glyph unicode="X" horiz-adv-x="1114" d="M-6 0l436 637l-405 592h256l278 -434l291 434h242l-408 -592l436 -637h-262l-305 469l-311 -469h-248z" />
<glyph unicode="Y" horiz-adv-x="1114" d="M-10 1229h250l325 -551l320 551h239l-458 -748v-481h-215v481z" />
<glyph unicode="Z" horiz-adv-x="1083" d="M39 0v176l717 866h-662v187h934v-164l-715 -879h734v-186h-1008z" />
<glyph unicode="[" horiz-adv-x="532" d="M92 -240v738v813h389v-172h-205v-1207h205v-172h-389z" />
<glyph unicode="\" horiz-adv-x="679" d="M113 1331h168l286 -1474h-168z" />
<glyph unicode="]" horiz-adv-x="532" d="M51 -68h156h49v490v717h-205v172h389v-475v-1076h-247h-142v172z" />
<glyph unicode="^" horiz-adv-x="1032" d="M145 575l310 629h123l309 -629h-174l-197 426l-197 -426h-174z" />
<glyph unicode="_" horiz-adv-x="860" d="M0 -129h860v-86h-860v86z" />
<glyph unicode="`" horiz-adv-x="413" d="M-49 1257h229l158 -245h-143z" />
<glyph unicode="a" d="M55 236q0 64 20.5 112t51 75.5t79.5 47t90.5 27.5t100.5 14q28 5 68 10.5t64.5 8.5t53 10.5t44.5 18.5t26.5 31t10.5 48q0 119 -185 119q-85 0 -136.5 -35t-57.5 -105h-197q4 66 28.5 117.5t62.5 84.5t90 54.5t106.5 30t116.5 8.5q54 0 104 -8.5t96.5 -28.5t80.5 -49 t54.5 -73t20.5 -99v-456q0 -38 10 -53t37 -15t47 4v-137q-67 -23 -123 -23q-132 0 -151 109q-55 -54 -139.5 -81.5t-168.5 -27.5q-129 0 -217 68.5t-88 192.5zM252 244q0 -41 32 -68t70 -36t78 -9q35 0 71 9.5t70.5 28t56 52.5t21.5 78v147q-27 -19 -62 -28t-96.5 -15.5 t-80.5 -9.5q-74 -12 -117 -45t-43 -104z" />
<glyph unicode="b" horiz-adv-x="1050" d="M109 0v1229h196v-455h2q39 63 114 101t152 38q102 0 183 -37t131 -102t76 -150t26 -184q0 -92 -23.5 -174t-69 -148t-120.5 -104.5t-170 -38.5q-234 0 -309 148h-2v-123h-186zM297 444q0 -138 67 -225.5t183 -87.5q64 0 113 26.5t77 72t42 99.5t14 115q0 83 -27 153 t-84 115.5t-135 45.5q-122 0 -186 -84.5t-64 -229.5z" />
<glyph unicode="c" d="M59 436q0 102 28 188t82 151t139 101.5t192 36.5q163 0 274.5 -82t124.5 -239h-194q-12 80 -66.5 123t-138.5 43q-33 0 -64 -7.5t-65 -29t-58.5 -56t-40.5 -93.5t-16 -136q0 -80 22.5 -146.5t77.5 -112.5t136 -46q86 0 142 53.5t71 149.5h194q-26 -174 -131 -266.5 t-276 -92.5q-136 0 -235.5 61t-148.5 164.5t-49 235.5z" />
<glyph unicode="d" horiz-adv-x="1050" d="M59 451q0 116 32.5 207t88 145.5t123.5 82t143 27.5q91 0 172 -35t123 -104h4v455h195v-1229h-184v121h-4q-36 -73 -111 -109.5t-164 -36.5q-103 0 -183.5 36.5t-131.5 101.5t-77 151t-26 187zM256 436q0 -81 25 -148t82.5 -112t138.5 -45q63 0 112.5 27t79 72.5t44 100 t14.5 115.5q0 146 -66 229t-180 83q-66 0 -116 -27.5t-78.5 -74t-42 -102t-13.5 -118.5z" />
<glyph unicode="e" d="M59 444q0 195 119 332t311 137q136 0 239.5 -74t149.5 -193q35 -89 35 -185q0 -33 -4 -68h-653q0 -112 61.5 -187t178.5 -75q164 0 217 148h184q-32 -143 -141.5 -223.5t-259.5 -80.5q-205 0 -321 129.5t-116 339.5zM256 522h459q-6 98 -68 167t-158 69q-100 0 -164 -67 t-69 -169z" />
<glyph unicode="f" horiz-adv-x="542" d="M16 743v146h146v74q0 66 14 114.5t36 77t55 46t66 23t75 5.5q91 0 137 -12v-154q-42 10 -90 10q-97 0 -97 -92v-92h166v-146h-166v-743h-196v743h-146z" />
<glyph unicode="g" horiz-adv-x="1019" d="M59 467q0 187 110 316.5t294 129.5q88 0 157 -37t105 -108h4v121h197v-842q0 -199 -112.5 -299t-324.5 -100q-72 0 -136.5 14.5t-122.5 45t-95 86t-43 130.5h195q17 -77 71.5 -104t141.5 -27q229 0 229 227v136h-4q-40 -72 -111.5 -114t-154.5 -42q-102 0 -180.5 37 t-125.5 102t-70.5 147.5t-23.5 180.5zM256 449q0 -76 23.5 -140.5t78 -108.5t131.5 -44q83 0 139 47t78.5 114t22.5 148q0 126 -59.5 209.5t-180.5 83.5q-62 0 -108.5 -27t-73 -73t-39 -98.5t-12.5 -110.5z" />
<glyph unicode="h" horiz-adv-x="987" d="M102 0v1229h197v-457h4q36 63 108 102t158 39q148 0 232 -77.5t84 -225.5v-610h-197v559q-3 104 -45 151.5t-129 47.5q-96 0 -155.5 -67t-59.5 -167v-524h-197z" />
<glyph unicode="i" horiz-adv-x="413" d="M109 0v889h196v-889h-196zM109 1042v187h196v-187h-196z" />
<glyph unicode="j" horiz-adv-x="413" d="M-37 -190q56 -9 66 -9q52 0 66 28.5t14 102.5v957h196v-965q0 -136 -61 -206t-195 -70q-48 0 -86 6v156zM109 1042v187h196v-187h-196z" />
<glyph unicode="k" horiz-adv-x="923" d="M109 0v1229h196v-699l354 359h240l-340 -326l373 -563h-238l-272 432l-117 -115v-317h-196z" />
<glyph unicode="l" horiz-adv-x="413" d="M109 0v1229h196v-1229h-196z" />
<glyph unicode="m" horiz-adv-x="1497" d="M102 0v889h187v-123h6q47 72 110 109.5t162 37.5q86 0 154 -37.5t96 -109.5q108 147 279 147q146 0 221.5 -70.5t75.5 -228.5v-614h-195v520q0 49 -2 79.5t-11 64.5t-26 52t-48 30t-75 12q-190 0 -190 -236v-522h-195v571q0 96 -35.5 141.5t-121.5 45.5 q-80 0 -137.5 -62.5t-57.5 -167.5v-528h-197z" />
<glyph unicode="n" horiz-adv-x="987" d="M102 0v889h187v-131l4 -2q43 74 116 115.5t160 41.5q148 0 232 -77.5t84 -225.5v-610h-197v559q-3 104 -45 151.5t-129 47.5q-96 0 -155.5 -67t-59.5 -167v-524h-197z" />
<glyph unicode="o" horiz-adv-x="1019" d="M61 446q0 207 120 337t329 130q211 0 331 -130t120 -337q0 -210 -120 -340.5t-331 -130.5q-210 0 -329.5 130.5t-119.5 340.5zM258 446q0 -60 15.5 -115t45 -100.5t79 -72.5t112.5 -27q84 0 143 47t85 116.5t26 151.5q0 80 -25.5 148.5t-85 116t-143.5 47.5 q-83 0 -142 -47.5t-84.5 -116t-25.5 -148.5z" />
<glyph unicode="p" horiz-adv-x="1050" d="M109 -328v1217h186v-121h2q40 73 112.5 109t163.5 36q102 0 183 -37t131 -102t76 -150t26 -184q0 -92 -23.5 -174t-69 -148t-120.5 -104.5t-170 -38.5q-92 0 -173 35t-126 105h-2v-443h-196zM297 444q0 -138 67 -225.5t183 -87.5q64 0 113 26.5t77 72t42 99.5t14 115 q0 83 -27 153t-84 115.5t-135 45.5q-122 0 -186 -84.5t-64 -229.5z" />
<glyph unicode="q" horiz-adv-x="1050" d="M59 440q0 99 26.5 184t77 150t131.5 102t183 37q90 0 163 -36t112 -109h4v121h184v-1217h-195v443h-4q-43 -70 -124.5 -105t-172.5 -35q-96 0 -171 38.5t-121 104.5t-69.5 148t-23.5 174zM256 444q0 -61 14 -115t42 -99.5t77 -72t113 -26.5q124 0 187 84t63 229 q0 147 -64.5 230.5t-185.5 83.5q-78 0 -135 -45.5t-84 -115.5t-27 -153z" />
<glyph unicode="r" horiz-adv-x="606" d="M102 0v889h185v-172h4q18 74 95 135t165 61q26 0 48 -2t26 -2v-190q-58 8 -84 8q-105 0 -173.5 -80.5t-68.5 -222.5v-424h-197z" />
<glyph unicode="s" horiz-adv-x="892" d="M55 285h197q7 -80 61.5 -117t139.5 -37q33 0 63.5 4.5t64 15.5t52.5 36q18 24 18 57q1 22 -9 42q-8 17 -26.5 30t-36 22t-48 17.5t-52.5 13.5t-60 13t-59 13q-49 11 -86 22.5t-76.5 32t-65 47.5t-42 68.5t-16.5 93.5q0 70 34.5 121.5t91.5 79t118.5 40.5t127.5 13 q71 0 132 -15t112 -47t84.5 -86t42.5 -126h-205q-20 119 -180 119q-26 0 -50 -3.5t-51.5 -12t-44 -28t-16.5 -46.5q0 -20 7.5 -36t25.5 -29t34 -21.5t48 -17.5t52 -13.5t61 -13t61 -13.5q50 -11 85.5 -22.5t76.5 -32.5t66 -47t42 -66.5t17 -91.5q0 -61 -24 -111t-63 -82.5 t-91 -54.5t-107 -31.5t-112 -9.5q-175 0 -283 79.5t-111 230.5z" />
<glyph unicode="t" horiz-adv-x="573" d="M14 743v146h148v266h196v-266h177v-146h-177v-475q0 -68 17 -95.5t78 -27.5q52 0 82 9v-152q-108 -10 -127 -10q-76 0 -124.5 13.5t-74.5 44.5t-35.5 69.5t-11.5 99.5v524h-148z" />
<glyph unicode="u" horiz-adv-x="987" d="M102 326v563h197v-545q0 -113 43.5 -163t126.5 -50q219 0 219 242v516h197v-889h-193v123h-4q-36 -65 -107.5 -106.5t-144.5 -41.5q-173 0 -253.5 87t-80.5 264z" />
<glyph unicode="v" horiz-adv-x="892" d="M16 889h213l226 -682h2l217 682h203l-318 -889h-221z" />
<glyph unicode="w" horiz-adv-x="1339" d="M23 889h208l172 -664h5l167 664h197l160 -664h4l180 664h201l-279 -889h-202l-164 662h-4l-164 -662h-207z" />
<glyph unicode="x" horiz-adv-x="923" d="M6 0l336 467l-307 422h237l185 -273l194 273h228l-304 -410l343 -479h-236l-225 328l-219 -328h-232z" />
<glyph unicode="y" horiz-adv-x="892" d="M6 889h215l232 -664h4l225 664h205l-346 -938q-2 -6 -7 -18q-51 -130 -87 -180q-77 -105 -222 -105q-79 0 -135 10v164q78 -10 92 -10q34 0 56.5 7.5t37.5 26t23.5 36.5t19.5 52l23 70z" />
<glyph unicode="z" horiz-adv-x="860" d="M37 0v137l493 598h-458v154h723v-137l-510 -596h536v-156h-784z" />
<glyph unicode="{" horiz-adv-x="626" d="M31 475v141h32q39 0 66 17.5t40 47t17 62.5t2 70l-14 193q-12 152 82 238.5t250 86.5h69v-172h-32q-121 0 -158 -38.5t-27 -157.5l15 -164q8 -100 -35 -156.5t-127 -95.5q83 -39 126.5 -97t35.5 -157l-15 -164q-10 -119 27 -158t158 -39h32v-172h-69q-156 0 -250 86.5 t-82 239.5l14 193q3 51 -5 92.5t-38.5 72.5t-81.5 31h-32z" />
<glyph unicode="|" horiz-adv-x="512" d="M174 -260v1653h164v-1653h-164z" />
<glyph unicode="}" horiz-adv-x="626" d="M31 -68h32q121 0 158 39t27 158l-15 164q-8 99 35.5 157t126.5 97q-84 39 -127 95.5t-35 156.5l15 164q10 119 -27 157.5t-158 38.5h-32v172h69q156 0 250 -86.5t82 -238.5l-14 -193q-2 -37 2 -70t17 -62.5t40 -47t66 -17.5h32v-141h-32q-51 0 -81.5 -31t-38.5 -72.5 t-5 -92.5l14 -193q12 -153 -82 -239.5t-250 -86.5h-69v172z" />
<glyph unicode="~" horiz-adv-x="1032" d="M119 434q76 148 215 148q63 0 190 -56q11 -5 37 -16.5t40 -17t34 -13t36 -11t29 -3.5q11 0 21.5 2t21 7t18 9t18 14t15.5 14t16 17.5t14 17t14.5 19t13.5 17.5l61 -146q-24 -34 -41.5 -54.5t-44.5 -45t-59 -36t-70 -11.5q-71 0 -176 57q-106 60 -196 60q-51 0 -84 -32 t-62 -85z" />
<glyph unicode="&#xa1;" horiz-adv-x="479" d="M123 698v215h231v-215h-231zM133 37l55 534h103l57 -534v-352h-215v352z" />
<glyph unicode="&#xa2;" d="M63 436q0 215 111.5 346t286.5 131v156h74v-156q95 0 175.5 -38t132 -112t58.5 -171h-196q-8 74 -54.5 120t-115.5 46v-627q77 12 122 64.5t56 138.5h196q-32 -169 -125.5 -264t-248.5 -95v-153h-74v153q-121 0 -213 63.5t-138.5 167.5t-46.5 230zM260 436 q0 -115 50.5 -202t150.5 -103v627q-54 -4 -95 -35t-63 -78.5t-32.5 -100t-10.5 -108.5z" />
<glyph unicode="&#xa3;" horiz-adv-x="952" d="M119 399v154h160v149q0 67 14.5 120t39 90t63 64.5t79.5 43t97.5 25t107.5 13t117 3.5l14 -172q-52 -4 -79 -6.5t-67 -8t-60 -11.5t-46.5 -16t-38.5 -23t-24.5 -31.5t-17 -43t-3.5 -55.5v-141h330l-23 -154h-307q-9 -162 -86 -225h500v-174h-744v164q65 36 99.5 98 t34.5 137h-160z" />
<glyph unicode="&#xa4;" d="M35 252l98 104q-86 95 -86 244q0 74 21.5 140.5t64.5 107.5l-98 104l98 99l98 -97q41 37 109.5 58.5t140.5 21.5q69 0 133.5 -21.5t102.5 -56.5l100 99l105 -105l-97 -100q38 -41 60 -108t22 -138t-22 -138t-62 -114l97 -100l-97 -96l-98 100q-41 -41 -107 -63.5 t-139 -22.5q-75 0 -142 21.5t-110 62.5l-96 -98zM231 600q0 -106 72 -180t176 -74q103 0 172.5 76t69.5 182q0 103 -69.5 178.5t-170.5 75.5q-106 0 -178 -75t-72 -183z" />
<glyph unicode="&#xa5;" d="M-8 1229h217l270 -551l273 551h213l-324 -604h170v-113h-236v-117h236v-110h-236v-285h-194v285h-236v110h236v117h-236v113h168z" />
<glyph unicode="&#xa6;" horiz-adv-x="380" d="M102 -29v502h177v-502h-177zM102 756v501h177v-501h-177z" />
<glyph unicode="&#xa7;" d="M37 537q0 179 186 256q-73 76 -73 174q0 67 29.5 123t78 91.5t108.5 55.5t123 20q150 0 247.5 -88t97.5 -237h-185q-3 73 -47 121.5t-115 48.5q-56 0 -98.5 -36.5t-42.5 -92.5q0 -17 4.5 -33t16 -31.5t21.5 -28t31 -27t34.5 -24t41.5 -24.5t43 -23t47 -24l46 -23 q52 -27 85.5 -46.5t76 -51.5t67.5 -62.5t42.5 -73.5t17.5 -91q0 -81 -52.5 -151t-130.5 -97q49 -40 73 -92t24 -129q0 -138 -100 -215.5t-242 -77.5q-162 0 -264.5 92.5t-106.5 259.5h186q6 -94 50.5 -146.5t129.5 -52.5q68 0 109 35t41 105q0 19 -4.5 36.5t-11.5 32 t-20.5 30t-24.5 27t-31.5 26t-34.5 23.5t-40 23.5t-41 22t-44.5 22.5t-44.5 23q-53 27 -90 48t-80.5 53.5t-70 64t-44.5 74.5t-18 90zM223 559q0 -79 94 -135l314 -174q104 43 104 141q0 38 -26.5 70.5t-94.5 70.5l-286 164q-46 -12 -75.5 -50t-29.5 -87z" />
<glyph unicode="&#xa8;" horiz-adv-x="413" d="M-37 1030v187h195v-187h-195zM258 1030v187h197v-187h-197z" />
<glyph unicode="&#xa9;" horiz-adv-x="1376" d="M57 614q0 188 87.5 336.5t231.5 227.5t314 79q126 0 240 -46.5t200.5 -129t137.5 -204.5t51 -263t-51 -263t-137.5 -204.5t-200.5 -129t-240 -46.5q-182 0 -327.5 84t-225.5 230.5t-80 328.5zM195 614q0 -147 59 -267.5t173 -192.5t263 -72q136 0 248 66.5t178 189 t66 276.5q0 232 -142 381.5t-350 149.5q-212 0 -353.5 -149.5t-141.5 -381.5zM346 614q0 160 98.5 264.5t262.5 104.5q122 0 206 -67.5t101 -190.5h-117q-14 65 -65.5 106t-124.5 41q-104 0 -164 -73.5t-60 -184.5q0 -116 63 -196t165 -80q74 0 125.5 42t60.5 109h119 q-23 -121 -106.5 -192.5t-198.5 -71.5q-163 0 -264 110.5t-101 278.5z" />
<glyph unicode="&#xaa;" horiz-adv-x="653" d="M27 801q0 32 8.5 57.5t28 42.5t37.5 29t50 20.5t52.5 12.5t56.5 10q11 2 29 5t27.5 4.5t24.5 4.5t23 5.5t18.5 6t16 7t11.5 8.5t8 11t2 13q0 26 -9.5 43t-27 24t-31.5 9t-35 2q-56 0 -86.5 -16t-33.5 -56h-148q5 51 30.5 88.5t65.5 58t84.5 29.5t96.5 9q99 0 171 -40.5 t72 -119.5v-260q0 -21 6 -30.5t23 -8.5q17 0 29 2v-117q-42 -14 -82 -14q-94 0 -107 84q-24 -35 -84.5 -59.5t-115.5 -24.5q-87 0 -149 43t-62 117zM178 811q0 -34 25 -45.5t71 -11.5q146 0 146 90v76q-12 -6 -31 -11t-34 -7.5t-42 -7.5t-39 -7q-96 -14 -96 -76z" />
<glyph unicode="&#xab;" horiz-adv-x="796" d="M86 371v194l266 211v-178l-164 -131l164 -129v-178zM426 371v194l268 211v-178l-164 -131l164 -129v-178z" />
<glyph unicode="&#xac;" horiz-adv-x="1032" d="M82 522v174h868v-510h-176v336h-692z" />
<glyph unicode="&#xad;" horiz-adv-x="993" d="M92 438v174h809v-174h-809z" />
<glyph unicode="&#xae;" horiz-adv-x="1376" d="M57 614q0 188 87.5 336.5t231.5 227.5t314 79q126 0 240 -46.5t200.5 -129t137.5 -204.5t51 -263t-51 -263t-137.5 -204.5t-200.5 -129t-240 -46.5q-182 0 -327.5 84t-225.5 230.5t-80 328.5zM195 614q0 -147 59 -267.5t173 -192.5t263 -72q136 0 248 66.5t178 189 t66 276.5q0 232 -142 381.5t-350 149.5q-212 0 -353.5 -149.5t-141.5 -381.5zM446 246v712h269q131 0 195.5 -49t64.5 -155q0 -174 -184 -195l198 -313h-133l-184 305h-109v-305h-117zM563 651h131q30 0 50.5 1.5t44 8t37 18t23 32.5t9.5 51q0 31 -13.5 51t-38 29.5 t-47.5 12.5t-54 3h-142v-207z" />
<glyph unicode="&#xaf;" horiz-adv-x="413" d="M-39 1065v113h496v-113h-496z" />
<glyph unicode="&#xb0;" horiz-adv-x="624" d="M51 791q0 109 75.5 185.5t184.5 76.5t185.5 -76.5t76.5 -185.5t-76.5 -185t-185.5 -76t-184.5 76t-75.5 185zM147 791q0 -70 48 -120t116 -50q69 0 117.5 50.5t48.5 119.5q0 70 -49 121t-117 51t-116 -51t-48 -121z" />
<glyph unicode="&#xb1;" horiz-adv-x="1032" d="M82 0v176h868v-176h-868zM82 479v176h346v215h176v-215h346v-176h-346v-215h-176v215h-346z" />
<glyph unicode="&#xb2;" horiz-adv-x="505" d="M72 528v103q2 2 21.5 17.5t29 23.5t30.5 26t33.5 30.5t31 30.5t29.5 33t22 32t16.5 32t5.5 29q0 53 -60 53q-56 0 -133 -41l-16 109q76 45 158 45q99 0 140.5 -47t41.5 -115q0 -97 -135 -223l-15 -13h172l-16 -125h-356z" />
<glyph unicode="&#xb3;" horiz-adv-x="485" d="M61 528l13 121q78 -24 135 -24q84 0 84 47q0 30 -35.5 42.5t-107.5 14.5l8 109q56 3 86 15.5t30 39.5q0 18 -17.5 27.5t-43.5 9.5q-40 0 -125 -29l-16 109q86 32 145 32q77 0 130.5 -35.5t53.5 -103.5q0 -67 -53 -106q76 -44 76 -125q0 -59 -32 -97t-76.5 -51.5 t-100.5 -13.5q-57 0 -154 18z" />
<glyph unicode="&#xb4;" horiz-adv-x="413" d="M78 1012l153 245h234l-244 -245h-143z" />
<glyph unicode="&#xb5;" horiz-adv-x="987" d="M102 -328v1217h197v-545q0 -113 43.5 -163t126.5 -50q219 0 219 242v516h197v-889h-193v123h-4q-36 -64 -104 -106t-129 -42q-102 0 -156 62v-365h-197z" />
<glyph unicode="&#xb6;" horiz-adv-x="1032" d="M53 905q0 165 106.5 244.5t295.5 79.5h444v-1503h-137v1390h-201v-1390h-137v866q-167 0 -269 88t-102 225z" />
<glyph unicode="&#xb7;" horiz-adv-x="479" d="M111 520q0 50 39 88.5t90 38.5t90 -38.5t39 -88.5q0 -53 -38.5 -92t-90.5 -39q-53 0 -91 39t-38 92z" />
<glyph unicode="&#xb8;" horiz-adv-x="413" d="M16 -344l31 70q6 -2 21 -7.5t23.5 -8t21 -6.5t23.5 -5.5t22 -1.5q106 0 106 72q0 30 -24.5 47.5t-55.5 17.5q-37 0 -67 -18l-37 32l113 152h81l-75 -100v-2q12 4 55 4q57 0 102 -33t45 -94q0 -42 -18 -73.5t-49 -49t-66 -25.5t-75 -8q-118 0 -177 37z" />
<glyph unicode="&#xb9;" horiz-adv-x="548" d="M104 528l11 125h104v269l-102 -11v107l139 24h88v-389h113l-13 -125h-340z" />
<glyph unicode="&#xba;" horiz-adv-x="653" d="M27 934q0 135 79.5 215t225.5 80q148 0 227.5 -80t79.5 -215t-79.5 -214t-227.5 -79q-146 0 -225.5 79t-79.5 214zM176 934q0 -71 41 -125.5t115 -54.5q76 0 114 52.5t43 127.5q0 71 -42 126.5t-115 55.5q-74 0 -115 -55t-41 -127z" />
<glyph unicode="&#xbb;" horiz-adv-x="796" d="M102 160v178l164 129l-164 131v178l269 -211v-194zM444 160v178l164 129l-164 131v178l267 -211v-194z" />
<glyph unicode="&#xbc;" horiz-adv-x="1067" d="M66 528l10 125h104v269l-102 -11v107l139 24h88v-389h113l-12 -125h-340zM127 41l729 1040l113 -82l-729 -1038zM578 94v107l176 313h159v-295h74l-16 -125h-58v-94h-125v94h-210zM707 219h81v148z" />
<glyph unicode="&#xbd;" horiz-adv-x="1097" d="M66 528l10 125h104v269l-102 -11v107l139 24h88v-389h113l-12 -125h-340zM127 41l729 1040l113 -82l-729 -1038zM653 0v102q2 2 21.5 17.5t29 23.5t30.5 26t33.5 30.5t31 30.5t29.5 33t22 32t16.5 32t5.5 29q0 54 -59 54q-56 0 -133 -41l-16 108q76 45 157 45 q99 0 141 -47t42 -115q0 -96 -136 -223l-14 -12h172l-16 -125h-357z" />
<glyph unicode="&#xbe;" horiz-adv-x="1067" d="M80 545l12 114q70 -18 135 -18q84 0 84 47q0 61 -143 64l8 96q117 7 117 61q0 18 -18 27.5t-44 9.5q-60 0 -125 -22l-16 108q80 27 146 27q77 0 130.5 -35.5t53.5 -103.5t-53 -107q75 -43 75 -125q0 -59 -32 -97t-76.5 -51.5t-100.5 -13.5q-51 0 -153 19zM127 41 l729 1040l113 -82l-729 -1038zM578 94v107l176 313h159v-295h74l-16 -125h-58v-94h-125v94h-210zM707 219h81v148z" />
<glyph unicode="&#xbf;" d="M84 -6q0 47 9.5 87t21 65.5t36 53.5t39.5 41.5t46 39.5q44 37 62.5 55t44 53.5t35 78.5t9.5 103h186q0 -98 -15.5 -163t-42.5 -104t-77 -83q-7 -6 -27 -22.5t-26.5 -22.5t-22.5 -21.5t-22 -24t-16 -24.5t-14 -30.5t-7.5 -33.5t-3.5 -40q0 -88 55.5 -135t112.5 -47 q103 0 156 67t53 181h196q2 -185 -110.5 -298.5t-302.5 -113.5q-162 0 -268.5 91.5t-106.5 246.5zM360 698v215h232v-215h-232z" />
<glyph unicode="&#xc0;" horiz-adv-x="1146" d="M-12 0l471 1229h229l473 -1229h-231l-115 326h-489l-117 -326h-221zM317 1595h230l158 -245h-144zM383 489h375l-183 527h-2h-4z" />
<glyph unicode="&#xc1;" horiz-adv-x="1146" d="M-12 0l471 1229h229l473 -1229h-231l-115 326h-489l-117 -326h-221zM383 489h375l-183 527h-2h-4zM444 1325l154 246h233l-243 -246h-144z" />
<glyph unicode="&#xc2;" horiz-adv-x="1146" d="M-12 0l471 1229h229l473 -1229h-231l-115 326h-489l-117 -326h-221zM295 1350l184 245h191l186 -245h-162l-121 155l-120 -155h-158zM383 489h375l-183 527h-2h-4z" />
<glyph unicode="&#xc3;" horiz-adv-x="1146" d="M-12 0l471 1229h229l473 -1229h-231l-115 326h-489l-117 -326h-221zM270 1362q12 75 59.5 134.5t119.5 59.5q61 0 139 -32q8 -3 28 -11.5t29 -11.5t23 -6.5t26 -3.5q69 0 86 76h97q-13 -92 -56 -140q-49 -59 -135 -59q-38 0 -127 33q-87 31 -119 31q-28 0 -49.5 -22 t-21.5 -48h-99zM383 489h375l-183 527h-2h-4z" />
<glyph unicode="&#xc4;" horiz-adv-x="1146" d="M-12 0l471 1229h229l473 -1229h-231l-115 326h-489l-117 -326h-221zM330 1368v186h194v-186h-194zM383 489h375l-183 527h-2h-4zM625 1368v186h196v-186h-196z" />
<glyph unicode="&#xc5;" horiz-adv-x="1146" d="M-12 0l471 1229h229l473 -1229h-231l-115 326h-489l-117 -326h-221zM383 489h375l-183 527h-2h-4zM397 1460q0 72 53 124t125 52t124.5 -52t52.5 -124t-52.5 -125t-124.5 -53t-125 53t-53 125zM469 1460q0 -41 32.5 -73.5t73.5 -32.5t73 32.5t32 73.5t-32 73t-73 32 t-73.5 -32t-32.5 -73z" />
<glyph unicode="&#xc6;" horiz-adv-x="1656" d="M-12 0l610 1229h991v-187h-598v-321h561v-176h-561v-359h608v-186h-813v315h-411l-148 -315h-239zM455 479h331v563h-61z" />
<glyph unicode="&#xc7;" horiz-adv-x="1241" d="M66 614q0 177 68.5 321.5t204 233t314.5 88.5q212 -2 357.5 -113.5t165.5 -305.5h-215q-64 243 -308 243q-95 0 -168 -39.5t-116.5 -106t-65.5 -148t-22 -173.5t22 -173.5t65.5 -149t116.5 -107t168 -39.5q137 0 219 91t95 231h211q-14 -218 -154.5 -355.5t-357.5 -138.5 l-56 -73v-2q14 4 58 4q57 0 101 -33t44 -94q0 -42 -18 -73.5t-49 -49t-66 -25.5t-74 -8q-116 0 -178 37l31 70q8 -3 26.5 -9.5t29.5 -10t26.5 -6.5t29.5 -3q105 0 105 72q0 30 -24 47.5t-56 17.5q-36 0 -66 -18l-38 32l94 125q-159 16 -278.5 106.5t-180.5 229.5t-61 305z " />
<glyph unicode="&#xc8;" horiz-adv-x="1083" d="M131 0v1229h885v-187h-670v-321h619v-176h-619v-359h680v-186h-895zM287 1595h229l158 -245h-144z" />
<glyph unicode="&#xc9;" horiz-adv-x="1083" d="M131 0v1229h885v-187h-670v-321h619v-176h-619v-359h680v-186h-895zM414 1350l153 245h234l-244 -245h-143z" />
<glyph unicode="&#xca;" horiz-adv-x="1083" d="M131 0v1229h885v-187h-670v-321h619v-176h-619v-359h680v-186h-895zM264 1350l185 245h190l186 -245h-161l-121 155l-121 -155h-158z" />
<glyph unicode="&#xcb;" horiz-adv-x="1083" d="M131 0v1229h885v-187h-670v-321h619v-176h-619v-359h680v-186h-895zM299 1368v186h195v-186h-195zM594 1368v186h197v-186h-197z" />
<glyph unicode="&#xcc;" horiz-adv-x="479" d="M-16 1595h229l158 -245h-144zM131 0v1229h215v-1229h-215z" />
<glyph unicode="&#xcd;" horiz-adv-x="479" d="M111 1341l153 246h234l-244 -246h-143zM131 0v1229h215v-1229h-215z" />
<glyph unicode="&#xce;" horiz-adv-x="479" d="M-39 1350l184 245h191l186 -245h-162l-120 155l-121 -155h-158zM131 0v1229h215v-1229h-215z" />
<glyph unicode="&#xcf;" horiz-adv-x="479" d="M-4 1368v186h194v-186h-194zM131 0v1229h215v-1229h-215zM291 1368v186h196v-186h-196z" />
<glyph unicode="&#xd0;" horiz-adv-x="1241" d="M16 545v176h115v508h508q111 0 201.5 -31.5t153.5 -87.5t105.5 -133.5t62.5 -168.5t20 -194q0 -131 -32 -240t-96.5 -194t-170.5 -132.5t-244 -47.5h-508v545h-115zM346 176h211q83 0 147.5 15t109 44.5t75 67t47.5 89t24 104.5t7 118q0 79 -10 140.5t-37.5 119.5t-72 96 t-118 60.5t-172.5 22.5h-211v-332h336v-176h-336v-369z" />
<glyph unicode="&#xd1;" horiz-adv-x="1241" d="M123 0v1229h227l559 -905h4v905h205v-1229h-227l-559 903h-4v-903h-205zM317 1362q12 75 59.5 134.5t119.5 59.5q61 0 139 -32q8 -3 28 -11.5t29 -11.5t23 -6.5t26 -3.5q69 0 86 76h97q-13 -92 -56 -140q-49 -59 -135 -59q-38 0 -127 33q-87 31 -119 31q-28 0 -49.5 -22 t-21.5 -48h-99z" />
<glyph unicode="&#xd2;" horiz-adv-x="1306" d="M66 614q0 177 68.5 321.5t204 233t314.5 88.5t314.5 -88.5t204.5 -233t69 -321.5t-69 -321.5t-204.5 -233t-314.5 -88.5t-314.5 88.5t-204 233t-68.5 321.5zM281 614q0 -92 22 -173.5t65.5 -149t116.5 -107t168 -39.5q77 0 140 26t105.5 71t72 105.5t42.5 127t13 139.5 q0 92 -22 173t-65 148t-117 106.5t-169 39.5t-168 -39.5t-116.5 -106t-65.5 -148t-22 -173.5zM397 1595h230l157 -245h-143z" />
<glyph unicode="&#xd3;" horiz-adv-x="1306" d="M66 614q0 177 68.5 321.5t204 233t314.5 88.5t314.5 -88.5t204.5 -233t69 -321.5t-69 -321.5t-204.5 -233t-314.5 -88.5t-314.5 88.5t-204 233t-68.5 321.5zM281 614q0 -92 22 -173.5t65.5 -149t116.5 -107t168 -39.5q77 0 140 26t105.5 71t72 105.5t42.5 127t13 139.5 q0 92 -22 173t-65 148t-117 106.5t-169 39.5t-168 -39.5t-116.5 -106t-65.5 -148t-22 -173.5zM524 1325l154 246h233l-243 -246h-144z" />
<glyph unicode="&#xd4;" horiz-adv-x="1306" d="M66 614q0 177 68.5 321.5t204 233t314.5 88.5t314.5 -88.5t204.5 -233t69 -321.5t-69 -321.5t-204.5 -233t-314.5 -88.5t-314.5 88.5t-204 233t-68.5 321.5zM281 614q0 -92 22 -173.5t65.5 -149t116.5 -107t168 -39.5q77 0 140 26t105.5 71t72 105.5t42.5 127t13 139.5 q0 92 -22 173t-65 148t-117 106.5t-169 39.5t-168 -39.5t-116.5 -106t-65.5 -148t-22 -173.5zM375 1350l184 245h191l186 -245h-162l-121 155l-121 -155h-157z" />
<glyph unicode="&#xd5;" horiz-adv-x="1306" d="M66 614q0 177 68.5 321.5t204 233t314.5 88.5t314.5 -88.5t204.5 -233t69 -321.5t-69 -321.5t-204.5 -233t-314.5 -88.5t-314.5 88.5t-204 233t-68.5 321.5zM281 614q0 -92 22 -173.5t65.5 -149t116.5 -107t168 -39.5q77 0 140 26t105.5 71t72 105.5t42.5 127t13 139.5 q0 92 -22 173t-65 148t-117 106.5t-169 39.5t-168 -39.5t-116.5 -106t-65.5 -148t-22 -173.5zM350 1362q12 75 59 134.5t119 59.5q62 0 140 -32q8 -3 28 -11.5t29 -11.5t23 -6.5t26 -3.5q69 0 86 76h96q-14 -93 -55 -140q-49 -59 -135 -59q-38 0 -127 33q-87 31 -119 31 q-28 0 -49.5 -22t-21.5 -48h-99z" />
<glyph unicode="&#xd6;" horiz-adv-x="1306" d="M66 614q0 177 68.5 321.5t204 233t314.5 88.5t314.5 -88.5t204.5 -233t69 -321.5t-69 -321.5t-204.5 -233t-314.5 -88.5t-314.5 88.5t-204 233t-68.5 321.5zM281 614q0 -92 22 -173.5t65.5 -149t116.5 -107t168 -39.5q77 0 140 26t105.5 71t72 105.5t42.5 127t13 139.5 q0 92 -22 173t-65 148t-117 106.5t-169 39.5t-168 -39.5t-116.5 -106t-65.5 -148t-22 -173.5zM410 1368v186h194v-186h-194zM705 1368v186h196v-186h-196z" />
<glyph unicode="&#xd7;" horiz-adv-x="894" d="M92 293l232 233l-224 224l123 122l223 -223l234 232l123 -123l-232 -232l224 -225l-123 -123l-223 223l-234 -231l-45 45l-45 45z" />
<glyph unicode="&#xd8;" horiz-adv-x="1306" d="M66 614q0 177 68.5 321.5t204 233t314.5 88.5q228 0 383 -139l129 146l74 -64l-137 -151q139 -181 139 -435q0 -177 -69 -321.5t-204.5 -233t-314.5 -88.5q-229 0 -381 142l-131 -148l-71 62l135 155q-139 175 -139 432zM281 614q0 -165 61 -276l567 635 q-93 108 -256 108q-95 0 -168 -39.5t-116.5 -106t-65.5 -148t-22 -173.5zM399 254q101 -109 254 -109q77 0 140 26t105.5 71t72 105.5t42.5 127t13 139.5q0 165 -63 277z" />
<glyph unicode="&#xd9;" horiz-adv-x="1241" d="M117 442v787h215v-717q0 -43 1.5 -72t7.5 -70t17 -68t32.5 -57t51.5 -47.5t75.5 -29.5t103.5 -12t103.5 12t75.5 29.5t51.5 47.5t32.5 57t17 68t7 69.5t1 72.5v717h215v-787q0 -231 -134.5 -351t-368.5 -120t-369 120t-135 351zM365 1595h229l158 -245h-144z" />
<glyph unicode="&#xda;" horiz-adv-x="1241" d="M117 442v787h215v-717q0 -43 1.5 -72t7.5 -70t17 -68t32.5 -57t51.5 -47.5t75.5 -29.5t103.5 -12t103.5 12t75.5 29.5t51.5 47.5t32.5 57t17 68t7 69.5t1 72.5v717h215v-787q0 -231 -134.5 -351t-368.5 -120t-369 120t-135 351zM492 1325l153 246h234l-244 -246h-143z " />
<glyph unicode="&#xdb;" horiz-adv-x="1241" d="M117 442v787h215v-717q0 -43 1.5 -72t7.5 -70t17 -68t32.5 -57t51.5 -47.5t75.5 -29.5t103.5 -12t103.5 12t75.5 29.5t51.5 47.5t32.5 57t17 68t7 69.5t1 72.5v717h215v-787q0 -231 -134.5 -351t-368.5 -120t-369 120t-135 351zM342 1350l184 245h191l186 -245h-162 l-120 155l-121 -155h-158z" />
<glyph unicode="&#xdc;" horiz-adv-x="1241" d="M117 442v787h215v-717q0 -43 1.5 -72t7.5 -70t17 -68t32.5 -57t51.5 -47.5t75.5 -29.5t103.5 -12t103.5 12t75.5 29.5t51.5 47.5t32.5 57t17 68t7 69.5t1 72.5v717h215v-787q0 -231 -134.5 -351t-368.5 -120t-369 120t-135 351zM377 1368v186h194v-186h-194zM672 1368 v186h196v-186h-196z" />
<glyph unicode="&#xdd;" horiz-adv-x="1114" d="M-10 1229h250l325 -551l320 551h239l-458 -748v-481h-215v481zM428 1325l154 246h233l-244 -246h-143z" />
<glyph unicode="&#xde;" horiz-adv-x="1146" d="M131 0v1229h215v-187h326q101 0 178.5 -25.5t122 -63.5t72.5 -91t37.5 -100.5t9.5 -99.5q0 -51 -9.5 -98t-37.5 -99.5t-72.5 -91t-122 -63.5t-178.5 -25h-326v-285h-215zM346 461h316q39 0 74.5 10.5t68.5 33t52.5 63.5t19.5 96q0 112 -57.5 157t-155.5 45h-318v-405z " />
<glyph unicode="&#xdf;" horiz-adv-x="987" d="M109 0v899q0 166 104.5 262t271.5 96q94 0 176.5 -35t136.5 -107.5t54 -166.5q0 -91 -45 -162t-131 -98v-4q105 -12 168 -97.5t63 -195.5q0 -182 -107.5 -299t-287.5 -117q-38 0 -96 7v153q36 -4 67 -4q58 0 101 17t67 43t38 64t18 70.5t4 73.5q0 111 -95 168 q-63 43 -198 43v129q119 0 170 45q67 51 67 146q0 172 -174 172q-33 0 -61 -10t-55.5 -33t-43.5 -69t-16 -111v-879h-196z" />
<glyph unicode="&#xe0;" d="M55 236q0 64 20.5 112t51 75.5t79.5 47t90.5 27.5t100.5 14q28 5 68 10.5t64.5 8.5t53 10.5t44.5 18.5t26.5 31t10.5 48q0 119 -185 119q-85 0 -136.5 -35t-57.5 -105h-197q4 66 28.5 117.5t62.5 84.5t90 54.5t106.5 30t116.5 8.5q54 0 104 -8.5t96.5 -28.5t80.5 -49 t54.5 -73t20.5 -99v-456q0 -38 10 -53t37 -15t47 4v-137q-67 -23 -123 -23q-132 0 -151 109q-55 -54 -139.5 -81.5t-168.5 -27.5q-129 0 -217 68.5t-88 192.5zM223 1257h230l157 -245h-143zM252 244q0 -41 32 -68t70 -36t78 -9q35 0 71 9.5t70.5 28t56 52.5t21.5 78v147 q-27 -19 -62 -28t-96.5 -15.5t-80.5 -9.5q-74 -12 -117 -45t-43 -104z" />
<glyph unicode="&#xe1;" d="M55 236q0 64 20.5 112t51 75.5t79.5 47t90.5 27.5t100.5 14q28 5 68 10.5t64.5 8.5t53 10.5t44.5 18.5t26.5 31t10.5 48q0 119 -185 119q-85 0 -136.5 -35t-57.5 -105h-197q4 66 28.5 117.5t62.5 84.5t90 54.5t106.5 30t116.5 8.5q54 0 104 -8.5t96.5 -28.5t80.5 -49 t54.5 -73t20.5 -99v-456q0 -38 10 -53t37 -15t47 4v-137q-67 -23 -123 -23q-132 0 -151 109q-55 -54 -139.5 -81.5t-168.5 -27.5q-129 0 -217 68.5t-88 192.5zM252 244q0 -41 32 -68t70 -36t78 -9q35 0 71 9.5t70.5 28t56 52.5t21.5 78v147q-27 -19 -62 -28t-96.5 -15.5 t-80.5 -9.5q-74 -12 -117 -45t-43 -104zM350 1012l154 245h233l-243 -245h-144z" />
<glyph unicode="&#xe2;" d="M55 236q0 64 20.5 112t51 75.5t79.5 47t90.5 27.5t100.5 14q28 5 68 10.5t64.5 8.5t53 10.5t44.5 18.5t26.5 31t10.5 48q0 119 -185 119q-85 0 -136.5 -35t-57.5 -105h-197q4 66 28.5 117.5t62.5 84.5t90 54.5t106.5 30t116.5 8.5q54 0 104 -8.5t96.5 -28.5t80.5 -49 t54.5 -73t20.5 -99v-456q0 -38 10 -53t37 -15t47 4v-137q-67 -23 -123 -23q-132 0 -151 109q-55 -54 -139.5 -81.5t-168.5 -27.5q-129 0 -217 68.5t-88 192.5zM201 1012l184 245h190l187 -245h-162l-121 155l-121 -155h-157zM252 244q0 -41 32 -68t70 -36t78 -9q35 0 71 9.5 t70.5 28t56 52.5t21.5 78v147q-27 -19 -62 -28t-96.5 -15.5t-80.5 -9.5q-74 -12 -117 -45t-43 -104z" />
<glyph unicode="&#xe3;" d="M55 236q0 64 20.5 112t51 75.5t79.5 47t90.5 27.5t100.5 14q28 5 68 10.5t64.5 8.5t53 10.5t44.5 18.5t26.5 31t10.5 48q0 119 -185 119q-85 0 -136.5 -35t-57.5 -105h-197q4 66 28.5 117.5t62.5 84.5t90 54.5t106.5 30t116.5 8.5q54 0 104 -8.5t96.5 -28.5t80.5 -49 t54.5 -73t20.5 -99v-456q0 -38 10 -53t37 -15t47 4v-137q-67 -23 -123 -23q-132 0 -151 109q-55 -54 -139.5 -81.5t-168.5 -27.5q-129 0 -217 68.5t-88 192.5zM176 1024q12 76 59 135.5t119 59.5q60 0 140 -33q8 -3 28 -11.5t29 -11.5t23 -6.5t26 -3.5q69 0 86 76h96 q-13 -92 -55 -139q-50 -60 -135 -60q-38 0 -127 33q-87 31 -119 31q-28 0 -50 -22t-22 -48h-98zM252 244q0 -41 32 -68t70 -36t78 -9q35 0 71 9.5t70.5 28t56 52.5t21.5 78v147q-27 -19 -62 -28t-96.5 -15.5t-80.5 -9.5q-74 -12 -117 -45t-43 -104z" />
<glyph unicode="&#xe4;" d="M55 236q0 64 20.5 112t51 75.5t79.5 47t90.5 27.5t100.5 14q28 5 68 10.5t64.5 8.5t53 10.5t44.5 18.5t26.5 31t10.5 48q0 119 -185 119q-85 0 -136.5 -35t-57.5 -105h-197q4 66 28.5 117.5t62.5 84.5t90 54.5t106.5 30t116.5 8.5q54 0 104 -8.5t96.5 -28.5t80.5 -49 t54.5 -73t20.5 -99v-456q0 -38 10 -53t37 -15t47 4v-137q-67 -23 -123 -23q-132 0 -151 109q-55 -54 -139.5 -81.5t-168.5 -27.5q-129 0 -217 68.5t-88 192.5zM236 1030v187h194v-187h-194zM252 244q0 -41 32 -68t70 -36t78 -9q35 0 71 9.5t70.5 28t56 52.5t21.5 78v147 q-27 -19 -62 -28t-96.5 -15.5t-80.5 -9.5q-74 -12 -117 -45t-43 -104zM530 1030v187h197v-187h-197z" />
<glyph unicode="&#xe5;" d="M55 236q0 64 20.5 112t51 75.5t79.5 47t90.5 27.5t100.5 14q28 5 68 10.5t64.5 8.5t53 10.5t44.5 18.5t26.5 31t10.5 48q0 119 -185 119q-85 0 -136.5 -35t-57.5 -105h-197q4 66 28.5 117.5t62.5 84.5t90 54.5t106.5 30t116.5 8.5q54 0 104 -8.5t96.5 -28.5t80.5 -49 t54.5 -73t20.5 -99v-456q0 -38 10 -53t37 -15t47 4v-137q-67 -23 -123 -23q-132 0 -151 109q-55 -54 -139.5 -81.5t-168.5 -27.5q-129 0 -217 68.5t-88 192.5zM252 244q0 -41 32 -68t70 -36t78 -9q35 0 71 9.5t70.5 28t56 52.5t21.5 78v147q-27 -19 -62 -28t-96.5 -15.5 t-80.5 -9.5q-74 -12 -117 -45t-43 -104zM303 1122q0 72 53 124t125 52t124 -52t52 -124t-52 -125t-124 -53t-125 53t-53 125zM375 1122q0 -41 32.5 -73.5t73.5 -32.5t73 32.5t32 73.5t-32 73t-73 32t-73.5 -32t-32.5 -73z" />
<glyph unicode="&#xe6;" horiz-adv-x="1529" d="M55 236q0 64 20.5 112t51 75.5t79.5 47t90.5 27.5t100.5 14q28 5 67.5 10.5t62.5 8.5t50 10.5t41.5 18.5t24.5 31t10 48q0 119 -174 119q-85 0 -136.5 -35t-57.5 -105h-197q5 82 40.5 141.5t93 92t123 47t142.5 14.5q101 0 177 -24.5t124 -95.5q47 61 121.5 90.5 t159.5 29.5q147 0 245 -69t138 -184t31 -267h-645q-2 -109 58 -185.5t173 -76.5q78 0 132 39.5t79 110.5h197q-38 -141 -147 -223.5t-257 -82.5q-233 0 -325 164q-56 -83 -154 -123.5t-217 -40.5q-140 0 -231 68t-91 193zM252 244q0 -60 52.5 -86.5t125.5 -26.5 q89 0 155 47.5t66 130.5v133q-19 -18 -53.5 -26t-97 -13.5t-86.5 -9.5q-76 -12 -119 -45t-43 -104zM838 522h448q2 107 -58 171.5t-167 64.5q-100 0 -158.5 -67t-64.5 -169z" />
<glyph unicode="&#xe7;" d="M59 436q0 102 28 188t82 151t139 101.5t192 36.5q163 0 274.5 -82t124.5 -239h-194q-12 80 -66.5 123t-138.5 43q-33 0 -64 -7.5t-65 -29t-58.5 -56t-40.5 -93.5t-16 -136q0 -80 22.5 -146.5t77.5 -112.5t136 -46q86 0 142 53.5t71 149.5h194q-25 -164 -120.5 -255.5 t-250.5 -98.5l-61 -80v-2q14 4 57 4q58 0 103 -33t45 -94q0 -42 -18 -73.5t-49 -49t-66.5 -25.5t-75.5 -8q-116 0 -178 37l32 70q6 -2 21 -7.5t23.5 -8t21 -6.5t23.5 -5.5t22 -1.5q104 0 104 72q0 30 -23.5 47.5t-53.5 17.5q-38 0 -68 -18l-37 32l96 132q-183 13 -285 139 t-102 317z" />
<glyph unicode="&#xe8;" d="M59 444q0 195 119 332t311 137q136 0 239.5 -74t150 -193t30.5 -253h-653q0 -112 61.5 -187t178.5 -75q164 0 217 148h184q-32 -143 -141.5 -223.5t-259.5 -80.5q-205 0 -321 129.5t-116 339.5zM223 1257h230l157 -245h-143zM256 522h459q-6 98 -68 167t-158 69 q-100 0 -164 -67t-69 -169z" />
<glyph unicode="&#xe9;" d="M59 444q0 195 119 332t311 137q136 0 239.5 -74t150 -193t30.5 -253h-653q0 -112 61.5 -187t178.5 -75q164 0 217 148h184q-32 -143 -141.5 -223.5t-259.5 -80.5q-205 0 -321 129.5t-116 339.5zM256 522h459q-6 98 -68 167t-158 69q-100 0 -164 -67t-69 -169zM350 1012 l154 245h233l-243 -245h-144z" />
<glyph unicode="&#xea;" d="M59 444q0 195 119 332t311 137q136 0 239.5 -74t150 -193t30.5 -253h-653q0 -112 61.5 -187t178.5 -75q164 0 217 148h184q-32 -143 -141.5 -223.5t-259.5 -80.5q-205 0 -321 129.5t-116 339.5zM201 1012l184 245h190l187 -245h-162l-121 155l-121 -155h-157zM256 522 h459q-6 98 -68 167t-158 69q-100 0 -164 -67t-69 -169z" />
<glyph unicode="&#xeb;" d="M59 444q0 195 119 332t311 137q136 0 239.5 -74t150 -193t30.5 -253h-653q0 -112 61.5 -187t178.5 -75q164 0 217 148h184q-32 -143 -141.5 -223.5t-259.5 -80.5q-205 0 -321 129.5t-116 339.5zM236 1030v187h194v-187h-194zM256 522h459q-6 98 -68 167t-158 69 q-100 0 -164 -67t-69 -169zM530 1030v187h197v-187h-197z" />
<glyph unicode="&#xec;" horiz-adv-x="413" d="M-49 1257h229l158 -245h-143zM109 0v889h196v-889h-196z" />
<glyph unicode="&#xed;" horiz-adv-x="413" d="M78 1012l153 245h234l-244 -245h-143zM109 0v889h196v-889h-196z" />
<glyph unicode="&#xee;" horiz-adv-x="413" d="M-72 1012l185 245h190l186 -245h-161l-121 155l-121 -155h-158zM109 0v889h196v-889h-196z" />
<glyph unicode="&#xef;" horiz-adv-x="413" d="M-37 1030v187h195v-187h-195zM109 0v889h196v-889h-196zM258 1030v187h197v-187h-197z" />
<glyph unicode="&#xf0;" horiz-adv-x="1019" d="M72 434q0 114 45.5 212.5t135 161t204.5 62.5q139 0 245 -75h3q-49 113 -185 225l-186 -90l-86 86l166 78q-105 46 -148 59l131 104q101 -32 178 -86l183 86l84 -83l-162 -78q129 -105 197.5 -251.5t68.5 -312.5q0 -94 -15.5 -175.5t-51 -152.5t-88 -121t-131.5 -79 t-177 -29q-193 0 -302 126.5t-109 332.5zM268 422q0 -127 57.5 -209t170.5 -82q114 0 184 87.5t70 203.5q0 78 -23 142t-78 107.5t-135 43.5q-128 0 -187 -81.5t-59 -211.5z" />
<glyph unicode="&#xf1;" horiz-adv-x="987" d="M102 0v889h187v-131l4 -2q43 74 116 115.5t160 41.5q148 0 232 -77.5t84 -225.5v-610h-197v559q-3 104 -45 151.5t-129 47.5q-96 0 -155.5 -67t-59.5 -167v-524h-197zM190 1024q12 75 59.5 135t119.5 60q59 0 139 -33q8 -3 28 -11.5t29 -11.5t23 -6.5t26 -3.5q69 0 86 76 h97q-13 -91 -56 -139q-50 -60 -135 -60q-38 0 -127 33q-87 31 -119 31q-28 0 -49.5 -22t-21.5 -48h-99z" />
<glyph unicode="&#xf2;" horiz-adv-x="1019" d="M61 446q0 207 120 337t329 130q211 0 331 -130t120 -337q0 -210 -120 -340.5t-331 -130.5q-210 0 -329.5 130.5t-119.5 340.5zM254 1257h229l158 -245h-143zM258 446q0 -60 15.5 -115t45 -100.5t79 -72.5t112.5 -27q84 0 143 47t85 116.5t26 151.5q0 80 -25.5 148.5 t-85 116t-143.5 47.5q-83 0 -142 -47.5t-84.5 -116t-25.5 -148.5z" />
<glyph unicode="&#xf3;" horiz-adv-x="1019" d="M61 446q0 207 120 337t329 130q211 0 331 -130t120 -337q0 -210 -120 -340.5t-331 -130.5q-210 0 -329.5 130.5t-119.5 340.5zM258 446q0 -60 15.5 -115t45 -100.5t79 -72.5t112.5 -27q84 0 143 47t85 116.5t26 151.5q0 80 -25.5 148.5t-85 116t-143.5 47.5 q-83 0 -142 -47.5t-84.5 -116t-25.5 -148.5zM381 1012l154 245h233l-244 -245h-143z" />
<glyph unicode="&#xf4;" horiz-adv-x="1019" d="M61 446q0 207 120 337t329 130q211 0 331 -130t120 -337q0 -210 -120 -340.5t-331 -130.5q-210 0 -329.5 130.5t-119.5 340.5zM231 1012l185 245h190l187 -245h-162l-121 155l-121 -155h-158zM258 446q0 -60 15.5 -115t45 -100.5t79 -72.5t112.5 -27q84 0 143 47 t85 116.5t26 151.5q0 80 -25.5 148.5t-85 116t-143.5 47.5q-83 0 -142 -47.5t-84.5 -116t-25.5 -148.5z" />
<glyph unicode="&#xf5;" horiz-adv-x="1019" d="M61 446q0 207 120 337t329 130q211 0 331 -130t120 -337q0 -210 -120 -340.5t-331 -130.5q-210 0 -329.5 130.5t-119.5 340.5zM207 1024q12 76 59 135.5t119 59.5q59 0 139 -33q7 -3 28 -11.5t29.5 -11.5t23 -6.5t26.5 -3.5q69 0 86 76h96q-13 -92 -55 -139 q-50 -60 -135 -60q-38 0 -127 33q-87 31 -119 31q-28 0 -50 -22t-22 -48h-98zM258 446q0 -60 15.5 -115t45 -100.5t79 -72.5t112.5 -27q84 0 143 47t85 116.5t26 151.5q0 80 -25.5 148.5t-85 116t-143.5 47.5q-83 0 -142 -47.5t-84.5 -116t-25.5 -148.5z" />
<glyph unicode="&#xf6;" horiz-adv-x="1019" d="M61 446q0 207 120 337t329 130q211 0 331 -130t120 -337q0 -210 -120 -340.5t-331 -130.5q-210 0 -329.5 130.5t-119.5 340.5zM258 446q0 -60 15.5 -115t45 -100.5t79 -72.5t112.5 -27q84 0 143 47t85 116.5t26 151.5q0 80 -25.5 148.5t-85 116t-143.5 47.5 q-83 0 -142 -47.5t-84.5 -116t-25.5 -148.5zM266 1030v187h195v-187h-195zM561 1030v187h197v-187h-197z" />
<glyph unicode="&#xf7;" horiz-adv-x="1032" d="M82 348v174h868v-174h-868zM393 80q0 52 36.5 88.5t86.5 36.5q51 0 87 -37t36 -88q0 -47 -36 -85t-85 -38q-51 0 -88 36.5t-37 86.5zM393 791q0 51 36.5 86.5t86.5 35.5q51 0 87 -36t36 -86q0 -48 -36 -86.5t-85 -38.5q-51 0 -88 37t-37 88z" />
<glyph unicode="&#xf8;" horiz-adv-x="1019" d="M55 0l111 123q-105 130 -105 323q0 207 120 337t329 130q178 0 293 -94l108 119l56 -49l-113 -121q107 -131 107 -322q0 -210 -120 -340.5t-331 -130.5q-171 0 -289 97l-110 -121zM258 446q0 -103 39 -180l385 420q-69 72 -172 72q-83 0 -142 -47.5t-84.5 -116 t-25.5 -148.5zM340 203q66 -72 170 -72q84 0 143 47t85 116.5t26 151.5q0 100 -39 177z" />
<glyph unicode="&#xf9;" horiz-adv-x="987" d="M102 326v563h197v-545q0 -113 43.5 -163t126.5 -50q219 0 219 242v516h197v-889h-193v123h-4q-36 -65 -107.5 -106.5t-144.5 -41.5q-173 0 -253.5 87t-80.5 264zM238 1257h229l158 -245h-144z" />
<glyph unicode="&#xfa;" horiz-adv-x="987" d="M102 326v563h197v-545q0 -113 43.5 -163t126.5 -50q219 0 219 242v516h197v-889h-193v123h-4q-36 -65 -107.5 -106.5t-144.5 -41.5q-173 0 -253.5 87t-80.5 264zM365 1012l153 245h234l-244 -245h-143z" />
<glyph unicode="&#xfb;" horiz-adv-x="987" d="M102 326v563h197v-545q0 -113 43.5 -163t126.5 -50q219 0 219 242v516h197v-889h-193v123h-4q-36 -65 -107.5 -106.5t-144.5 -41.5q-173 0 -253.5 87t-80.5 264zM215 1012l184 245h191l186 -245h-162l-120 155l-121 -155h-158z" />
<glyph unicode="&#xfc;" horiz-adv-x="987" d="M102 326v563h197v-545q0 -113 43.5 -163t126.5 -50q219 0 219 242v516h197v-889h-193v123h-4q-36 -65 -107.5 -106.5t-144.5 -41.5q-173 0 -253.5 87t-80.5 264zM250 1030v187h194v-187h-194zM545 1030v187h196v-187h-196z" />
<glyph unicode="&#xfd;" horiz-adv-x="892" d="M6 889h215l232 -664h4l225 664h205l-346 -938q-2 -6 -7 -18q-51 -130 -87 -180q-77 -105 -222 -105q-79 0 -135 10v164q78 -10 92 -10q34 0 56.5 7.5t37.5 26t23.5 36.5t19.5 52l23 70zM317 1012l154 245h234l-244 -245h-144z" />
<glyph unicode="&#xfe;" horiz-adv-x="1050" d="M109 -328v1557h196v-455h2q39 63 114 101t152 38q102 0 183 -37t131 -102t76 -150t26 -184q0 -92 -23.5 -174t-69 -148t-120.5 -104.5t-170 -38.5q-91 0 -172.5 35t-126.5 105h-2v-443h-196zM297 444q0 -138 67 -225.5t183 -87.5q64 0 113 26.5t77 72t42 99.5t14 115 q0 83 -27 153t-84 115.5t-135 45.5q-122 0 -186 -84.5t-64 -229.5z" />
<glyph unicode="&#xff;" horiz-adv-x="892" d="M6 889h215l232 -664h4l225 664h205l-346 -938q-2 -6 -7 -18q-51 -130 -87 -180q-77 -105 -222 -105q-79 0 -135 10v164q78 -10 92 -10q34 0 56.5 7.5t37.5 26t23.5 36.5t19.5 52l23 70zM203 1030v187h194v-187h-194zM498 1030v187h196v-187h-196z" />
<glyph unicode="&#x152;" horiz-adv-x="1880" d="M70 608q0 104 24.5 200t73.5 178t117.5 142.5t162 94.5t201.5 34q198 0 309 -127v99h840v-187h-643v-321h590v-176h-590v-359h655v-186h-852v111q-120 -140 -323 -140q-133 0 -241.5 51.5t-178.5 139.5t-107.5 202.5t-37.5 243.5zM285 612q0 -70 13 -136.5t42.5 -127 t71.5 -105.5t104.5 -71.5t138.5 -26.5q89 0 158.5 37.5t103 89.5t33.5 105v457q0 104 -76.5 175.5t-218.5 71.5q-94 0 -167 -40.5t-116 -108.5t-65 -149.5t-22 -170.5z" />
<glyph unicode="&#x153;" horiz-adv-x="1560" d="M59 446q0 130 49 234.5t147 168.5t230 64q229 0 312 -149q49 76 131 112.5t180 36.5q90 0 161 -27.5t117.5 -75t77 -114.5t43.5 -141.5t13 -161.5h-652q2 -116 61 -189t173 -73q77 0 137.5 39.5t73.5 112.5h196q-36 -149 -143 -228.5t-262 -79.5q-233 0 -318 164 q-87 -164 -317 -164q-100 0 -179.5 37.5t-129 103t-75.5 149.5t-26 181zM256 451q0 -63 10.5 -116.5t35 -101t70.5 -75t111 -27.5t111.5 27.5t70.5 75t35 101t11 116.5q0 57 -12.5 109t-38 97.5t-71.5 73t-106 27.5t-105.5 -27.5t-71 -73t-38 -97.5t-12.5 -109zM868 522h455 q-6 111 -64 173.5t-167 62.5q-95 0 -157 -68.5t-67 -167.5z" />
<glyph unicode="&#x178;" horiz-adv-x="1114" d="M-10 1229h250l325 -551l320 551h239l-458 -748v-481h-215v481zM313 1368v186h195v-186h-195zM608 1368v186h197v-186h-197z" />
<glyph unicode="&#x2c6;" horiz-adv-x="413" d="M-72 1012l185 245h190l186 -245h-161l-121 155l-121 -155h-158z" />
<glyph unicode="&#x2dc;" horiz-adv-x="413" d="M-96 1024q12 76 59 135.5t119 59.5q59 0 139 -33q7 -3 28 -11.5t29.5 -11.5t23 -6.5t26.5 -3.5q69 0 86 76h96q-13 -92 -55 -139q-50 -60 -136 -60q-37 0 -126 33q-87 31 -119 31q-28 0 -50 -22t-22 -48h-98z" />
<glyph unicode="&#x2000;" horiz-adv-x="818" />
<glyph unicode="&#x2001;" horiz-adv-x="1636" />
<glyph unicode="&#x2002;" horiz-adv-x="818" />
<glyph unicode="&#x2003;" horiz-adv-x="1636" />
<glyph unicode="&#x2004;" horiz-adv-x="545" />
<glyph unicode="&#x2005;" horiz-adv-x="409" />
<glyph unicode="&#x2006;" horiz-adv-x="272" />
<glyph unicode="&#x2007;" horiz-adv-x="272" />
<glyph unicode="&#x2008;" horiz-adv-x="204" />
<glyph unicode="&#x2009;" horiz-adv-x="327" />
<glyph unicode="&#x200a;" horiz-adv-x="90" />
<glyph unicode="&#x2010;" horiz-adv-x="993" d="M92 438v174h809v-174h-809z" />
<glyph unicode="&#x2011;" horiz-adv-x="993" d="M92 438v174h809v-174h-809z" />
<glyph unicode="&#x2012;" horiz-adv-x="993" d="M92 438v174h809v-174h-809z" />
<glyph unicode="&#x2013;" horiz-adv-x="993" d="M92 438v174h809v-174h-809z" />
<glyph unicode="&#x2014;" horiz-adv-x="1208" d="M92 438v174h1024v-174h-1024z" />
<glyph unicode="&#x2018;" horiz-adv-x="409" d="M92 621v88q0 61 8 116.5t20 92t24 64t20 40.5l8 12h145q-30 -80 -30 -252v-161h-195z" />
<glyph unicode="&#x2019;" horiz-adv-x="409" d="M92 621q31 79 31 251v162h194v-88q0 -61 -8 -116.5t-19.5 -92t-23.5 -64t-20 -39.5l-8 -13h-146z" />
<glyph unicode="&#x201a;" horiz-adv-x="409" d="M92 621q31 79 31 251v162h194v-88q0 -61 -8 -116.5t-19.5 -92t-23.5 -64t-20 -39.5l-8 -13h-146z" />
<glyph unicode="&#x201c;" horiz-adv-x="686" d="M92 621v88q0 61 8 116.5t20 92t24 64t20 40.5l8 12h145q-30 -80 -30 -252v-161h-195zM389 621v88q0 61 8 116.5t20 92t24 64t20 40.5l8 12h145q-30 -80 -30 -252v-161h-195z" />
<glyph unicode="&#x201d;" horiz-adv-x="686" d="M92 621q31 79 31 251v162h194v-88q0 -61 -8 -116.5t-19.5 -92t-23.5 -64t-20 -39.5l-8 -13h-146zM389 621q31 79 31 251v162h194v-88q0 -96 -20 -177.5t-40 -114.5l-19 -33h-146z" />
<glyph unicode="&#x201e;" horiz-adv-x="686" d="M92 621q31 79 31 251v162h194v-88q0 -61 -8 -116.5t-19.5 -92t-23.5 -64t-20 -39.5l-8 -13h-146zM389 621q31 79 31 251v162h194v-88q0 -96 -20 -177.5t-40 -114.5l-19 -33h-146z" />
<glyph unicode="&#x2022;" horiz-adv-x="698" d="M92 592q0 109 75.5 185.5t184.5 76.5t186.5 -76.5t77.5 -185.5q0 -107 -77.5 -183.5t-184.5 -76.5q-110 0 -186 76t-76 184z" />
<glyph unicode="&#x2026;" horiz-adv-x="1720" d="M166 0v231h240v-231h-240zM739 0v231h240v-231h-240zM1313 0v231h239v-231h-239z" />
<glyph unicode="&#x202f;" horiz-adv-x="327" />
<glyph unicode="&#x2039;" horiz-adv-x="1083" d="M72 528l372 373l109 -106l-180 -181h618v-172h-612l172 -170l-111 -112z" />
<glyph unicode="&#x203a;" horiz-adv-x="1083" d="M92 442v172h619l-181 181l109 106l373 -373l-369 -368l-111 112l173 170h-613z" />
<glyph unicode="&#x205f;" horiz-adv-x="409" />
<glyph unicode="&#x20ac;" horiz-adv-x="1124" d="M78 332l22 131h93q-3 51 -3 67l3 56h-115l22 129h117q52 168 187 258t344 90q80 0 149.5 -12.5t98.5 -24.5l30 -12l-22 -137q-148 32 -254 32q-108 0 -199 -48t-141 -146h438l-25 -129h-442q0 -1 -0.5 -8.5t-1 -21t-0.5 -28.5l2 -65h428l-18 -131h-371 q59 -98 152.5 -148.5t207.5 -50.5q40 0 99.5 7.5t98.5 14.5l40 7l22 -142q-161 -38 -286 -38q-211 0 -349 91.5t-188 258.5h-139z" />
<glyph unicode="&#x2122;" horiz-adv-x="1703" d="M102 1116v113h570v-113h-215v-596h-140v596h-215zM817 520v709h199l194 -504l193 504h199v-709h-129v553h-5l-211 -553h-96l-211 553h-4v-553h-129z" />
<glyph unicode="&#x25fc;" horiz-adv-x="890" d="M0 0v891h891v-891h-891z" />
<glyph unicode="&#xfb01;" d="M16 743v146h146v74q0 66 14 114.5t36 77t55 46t66 23t75 5.5q91 0 137 -12v-154q-42 10 -90 10q-97 0 -97 -92v-92h166v-146h-166v-743h-196v743h-146zM651 0v889h195v-889h-195zM651 1042v187h195v-187h-195z" />
<glyph unicode="&#xfb02;" d="M16 743v146h146v74q0 66 14 114.5t36 77t55 46t66 23t75 5.5q91 0 137 -12v-154q-42 10 -90 10q-97 0 -97 -92v-92h166v-146h-166v-743h-196v743h-146zM651 0v1229h195v-1229h-195z" />
</font>
</defs>
</svg>
